<svg width="330" height="60" viewBox="0 0 330 60" fill="none" xmlns="http://www.w3.org/2000/svg">
<path d="M75.8595 17.4808C75.5966 18.065 74.8737 18.7142 73.3621 18.7142H69.6818C69.0246 18.7142 68.5645 19.2336 68.4988 19.8178V59.5507H65.1471C64.0298 59.5507 63.8301 58.9015 63.8301 58.5769V18.7142H57.1924V15.5332C57.1924 14.7542 57.8496 14.105 58.6382 14.105H77.4342L75.8595 17.4808Z" fill="#3B3B3B"/>
<path d="M107.01 54.9414C106.484 56.11 105.695 57.9252 105.498 58.3172C105.17 58.9015 104.447 59.5507 102.935 59.5507H92.4199V15.4034C92.4856 14.6892 93.0771 14.105 93.8658 14.105H106.155L104.578 17.4808C104.315 18.065 103.592 18.7791 102.081 18.7791H98.269C97.6118 18.7791 97.1518 19.2336 97.1518 19.8828V33.3859H104.25C103.724 34.5569 102.935 36.4396 102.738 36.8266C102.409 37.4109 101.752 38.06 100.241 38.06H98.269C97.6775 38.06 97.1518 38.5794 97.1518 39.1637V54.9389L107.01 54.9414Z" fill="#3B3B3B"/>
<path d="M137.964 54.2249C137.964 57.341 135.467 59.8729 132.312 60.0002H129.418C126.132 60.0002 123.503 57.4035 123.503 54.2249V19.4284C123.503 16.2474 126.132 13.6506 129.418 13.6506H132.312C135.467 13.7156 137.964 16.3123 137.964 19.4284V26.3747C137.964 27.8679 137.307 28.582 136.715 28.8417L133.298 30.3997V20.2049C133.298 18.8416 132.181 17.738 130.735 17.738C129.355 17.738 128.237 18.8416 128.237 20.2049V53.381C128.237 54.8067 129.355 55.9128 130.735 55.9128C132.181 55.9128 133.298 54.8092 133.298 53.381V47.2786C133.298 45.7855 133.955 45.0714 134.546 44.7468C134.941 44.552 136.781 43.7705 137.964 43.2511V54.2249Z" fill="#3B3B3B"/>
<path d="M169.441 14.105C170.885 14.105 171.347 15.1437 171.347 15.9227V59.5507H166.615V39.7479C166.55 39.1662 166.09 38.7092 165.498 38.7092H160.372V59.5507H155.64V15.9227C155.64 15.1437 156.1 14.105 157.546 14.105H160.372V32.4795C160.372 33.7779 160.898 34.1 162.015 34.1H166.615V14.105H169.441Z" fill="#3B3B3B"/>
<path d="M198.817 25.5307V20.2722C198.817 18.844 197.702 17.7404 196.322 17.7404C194.939 17.7404 193.824 18.844 193.824 20.2722V24.6218C193.824 27.2835 195.862 30.7242 195.862 30.7242L201.514 41.241C203.814 45.3958 203.617 48.447 203.617 48.447V54.2248C203.617 57.4033 200.988 60.0001 197.702 60.0001H194.742C191.587 59.8702 189.092 57.3409 189.024 54.2248V49.5506C189.024 48.055 189.747 47.3409 190.341 47.0163C190.733 46.8865 192.639 46.0425 193.824 45.5232V53.4433C193.824 54.8066 194.939 55.9102 196.322 55.9102C197.702 55.9102 198.817 54.8066 198.817 53.3783V48.1848C198.817 45.5232 196.779 42.015 196.779 42.015L191.127 31.5631C188.827 27.4083 189.024 24.3571 189.024 24.3571V19.683C189.024 16.5019 191.653 13.6455 194.939 13.6455H197.896C201.051 13.7104 203.617 16.5669 203.617 19.683V21.4358C203.617 22.9289 202.894 23.643 202.3 23.9676C201.908 24.1674 200.065 25.0113 198.817 25.5307Z" fill="#3B3B3B"/>
<path d="M237.2 59.5482H232.005L227.865 28.2573L223.725 59.5482H218.53L225.497 14.1025H228.062C230.034 14.1025 230.362 15.336 230.56 16.5695L237.2 59.5482Z" fill="#3B3B3B"/>
<path d="M261.253 59.5482H259.216H258.887C256.519 59.5482 256.125 56.7567 256.061 56.3672L249.487 14.105H253.101C253.433 14.105 254.219 14.3647 254.484 15.8578L258.887 44.3597L263.554 14.105H268.285L261.253 59.5482Z" fill="#3B3B3B"/>
<path d="M293.059 59.5482H291.022H290.694C288.325 59.5482 287.931 56.7567 287.868 56.3672L281.293 14.105H284.908C285.239 14.105 286.025 14.3647 286.29 15.8578L290.694 44.3597L295.36 14.105H300.092L293.059 59.5482Z" fill="#3B3B3B"/>
<path d="M323.748 40.6568V59.5482H320.397C319.676 59.5482 319.082 58.964 319.017 58.1849V40.6544L313.367 14.1025H316.85C316.982 14.1025 318.165 14.1675 318.362 15.6606L321.385 32.8641L324.408 15.6606C324.603 14.1675 325.788 14.1025 325.92 14.1025H329.403L323.748 40.6568Z" fill="#3B3B3B"/>
<path d="M14.643 18.3371L8.34395 5.46816H21.5411L24.0966 0H0L12.176 24.6442L14.643 18.3371Z" fill="#3B3B3B"/>
<path d="M20.4355 41.1284L26.7346 53.9973H13.5374L10.9819 59.4655H35.0785L22.9051 34.8213L20.4355 41.1284Z" fill="#3B3B3B"/>
<path d="M45.6377 0L43.1707 5.46816H32.7818L5.7025 59.4657H0L29.291 0H45.6377Z" fill="url(#paint0_linear_2_20563)"/>
<path d="M45.853 0L30.4694 1.34582L0.215332 59.4657L29.5038 0H45.853Z" fill="url(#paint1_linear_2_20563)"/>
<path d="M40.7723 1.97253L45.6103 0L43.1407 5.46816H32.7544" fill="url(#paint2_linear_2_20563)"/>
<defs>
<linearGradient id="paint0_linear_2_20563" x1="0" y1="29.7323" x2="45.6382" y2="29.7323" gradientUnits="userSpaceOnUse">
<stop stop-color="#673E98"/>
<stop offset="0.1021" stop-color="#5F5EAA"/>
<stop offset="0.2618" stop-color="#4C86C5"/>
<stop offset="0.3942" stop-color="#2CA3DD"/>
<stop offset="0.4925" stop-color="#00B6EB"/>
<stop offset="0.5456" stop-color="#00BDF1"/>
<stop offset="0.9913" stop-color="#EE4699"/>
</linearGradient>
<linearGradient id="paint1_linear_2_20563" x1="0.214068" y1="29.7323" x2="45.8523" y2="29.7323" gradientUnits="userSpaceOnUse">
<stop stop-color="white"/>
<stop offset="0.9964" stop-color="white" stop-opacity="0"/>
</linearGradient>
<linearGradient id="paint2_linear_2_20563" x1="32.7534" y1="2.73483" x2="45.6103" y2="2.73483" gradientUnits="userSpaceOnUse">
<stop stop-color="white"/>
<stop offset="0.9964" stop-color="white" stop-opacity="0"/>
</linearGradient>
</defs>
</svg>
